<mxfile host="app.diagrams.net" modified="2024-03-17T06:26:19.190Z" agent="Mozilla/5.0 (Windows NT 10.0; Win64; x64) AppleWebKit/537.36 (KHTML, like Gecko) Chrome/122.0.0.0 Safari/537.36 Edg/122.0.0.0" etag="1dHwr3KbxfTBax2_fj0M" version="24.0.7" type="device">
  <diagram name="第 1 页" id="-1QTJniIoLml2M61hLHb">
    <mxGraphModel dx="1000" dy="605" grid="1" gridSize="10" guides="1" tooltips="1" connect="1" arrows="1" fold="1" page="1" pageScale="1" pageWidth="3300" pageHeight="4681" math="0" shadow="0">
      <root>
        <mxCell id="0" />
        <mxCell id="1" parent="0" />
        <mxCell id="mJAPhpbiudqumMJfXZQc-1" value="&lt;font style=&quot;font-size: 24px;&quot;&gt;0000&lt;/font&gt;" style="ellipse;whiteSpace=wrap;html=1;aspect=fixed;" vertex="1" parent="1">
          <mxGeometry x="140" y="410" width="80" height="80" as="geometry" />
        </mxCell>
        <mxCell id="mJAPhpbiudqumMJfXZQc-2" value="&lt;font style=&quot;font-size: 24px;&quot;&gt;1000&lt;/font&gt;" style="ellipse;whiteSpace=wrap;html=1;aspect=fixed;" vertex="1" parent="1">
          <mxGeometry x="250" y="410" width="80" height="80" as="geometry" />
        </mxCell>
        <mxCell id="mJAPhpbiudqumMJfXZQc-3" value="&lt;font style=&quot;font-size: 24px;&quot;&gt;1100&lt;/font&gt;" style="ellipse;whiteSpace=wrap;html=1;aspect=fixed;" vertex="1" parent="1">
          <mxGeometry x="360" y="410" width="80" height="80" as="geometry" />
        </mxCell>
        <mxCell id="mJAPhpbiudqumMJfXZQc-30" style="edgeStyle=orthogonalEdgeStyle;rounded=0;orthogonalLoop=1;jettySize=auto;html=1;exitX=1;exitY=0.5;exitDx=0;exitDy=0;entryX=0;entryY=0.5;entryDx=0;entryDy=0;" edge="1" parent="1" source="mJAPhpbiudqumMJfXZQc-4" target="mJAPhpbiudqumMJfXZQc-5">
          <mxGeometry relative="1" as="geometry" />
        </mxCell>
        <mxCell id="mJAPhpbiudqumMJfXZQc-4" value="&lt;font style=&quot;font-size: 24px;&quot;&gt;1110&lt;/font&gt;" style="ellipse;whiteSpace=wrap;html=1;aspect=fixed;" vertex="1" parent="1">
          <mxGeometry x="470" y="410" width="80" height="80" as="geometry" />
        </mxCell>
        <mxCell id="mJAPhpbiudqumMJfXZQc-31" style="edgeStyle=orthogonalEdgeStyle;rounded=0;orthogonalLoop=1;jettySize=auto;html=1;exitX=1;exitY=0.5;exitDx=0;exitDy=0;entryX=0;entryY=0.5;entryDx=0;entryDy=0;" edge="1" parent="1" source="mJAPhpbiudqumMJfXZQc-5" target="mJAPhpbiudqumMJfXZQc-6">
          <mxGeometry relative="1" as="geometry" />
        </mxCell>
        <mxCell id="mJAPhpbiudqumMJfXZQc-5" value="&lt;font style=&quot;font-size: 24px;&quot;&gt;0111&lt;/font&gt;" style="ellipse;whiteSpace=wrap;html=1;aspect=fixed;" vertex="1" parent="1">
          <mxGeometry x="580" y="410" width="80" height="80" as="geometry" />
        </mxCell>
        <mxCell id="mJAPhpbiudqumMJfXZQc-32" style="edgeStyle=orthogonalEdgeStyle;rounded=0;orthogonalLoop=1;jettySize=auto;html=1;exitX=0.5;exitY=1;exitDx=0;exitDy=0;entryX=0.5;entryY=0;entryDx=0;entryDy=0;" edge="1" parent="1" source="mJAPhpbiudqumMJfXZQc-6" target="mJAPhpbiudqumMJfXZQc-14">
          <mxGeometry relative="1" as="geometry" />
        </mxCell>
        <mxCell id="mJAPhpbiudqumMJfXZQc-6" value="&lt;font style=&quot;font-size: 24px;&quot;&gt;1011&lt;/font&gt;" style="ellipse;whiteSpace=wrap;html=1;aspect=fixed;" vertex="1" parent="1">
          <mxGeometry x="690" y="410" width="80" height="80" as="geometry" />
        </mxCell>
        <mxCell id="mJAPhpbiudqumMJfXZQc-35" style="edgeStyle=orthogonalEdgeStyle;rounded=0;orthogonalLoop=1;jettySize=auto;html=1;exitX=0.5;exitY=1;exitDx=0;exitDy=0;entryX=0.5;entryY=0;entryDx=0;entryDy=0;" edge="1" parent="1" source="mJAPhpbiudqumMJfXZQc-7" target="mJAPhpbiudqumMJfXZQc-6">
          <mxGeometry relative="1" as="geometry" />
        </mxCell>
        <mxCell id="mJAPhpbiudqumMJfXZQc-7" value="&lt;font style=&quot;font-size: 24px;&quot;&gt;0110&lt;/font&gt;" style="ellipse;whiteSpace=wrap;html=1;aspect=fixed;" vertex="1" parent="1">
          <mxGeometry x="690" y="300" width="80" height="80" as="geometry" />
        </mxCell>
        <mxCell id="mJAPhpbiudqumMJfXZQc-36" style="edgeStyle=orthogonalEdgeStyle;rounded=0;orthogonalLoop=1;jettySize=auto;html=1;exitX=0.5;exitY=1;exitDx=0;exitDy=0;entryX=0.5;entryY=0;entryDx=0;entryDy=0;" edge="1" parent="1" source="mJAPhpbiudqumMJfXZQc-8" target="mJAPhpbiudqumMJfXZQc-15">
          <mxGeometry relative="1" as="geometry" />
        </mxCell>
        <mxCell id="mJAPhpbiudqumMJfXZQc-8" value="&lt;font style=&quot;font-size: 24px;&quot;&gt;0100&lt;/font&gt;" style="ellipse;whiteSpace=wrap;html=1;aspect=fixed;" vertex="1" parent="1">
          <mxGeometry x="800" y="410" width="80" height="80" as="geometry" />
        </mxCell>
        <mxCell id="mJAPhpbiudqumMJfXZQc-43" style="edgeStyle=orthogonalEdgeStyle;rounded=0;orthogonalLoop=1;jettySize=auto;html=1;exitX=0.5;exitY=1;exitDx=0;exitDy=0;entryX=0.5;entryY=0;entryDx=0;entryDy=0;" edge="1" parent="1" source="mJAPhpbiudqumMJfXZQc-9" target="mJAPhpbiudqumMJfXZQc-2">
          <mxGeometry relative="1" as="geometry" />
        </mxCell>
        <mxCell id="mJAPhpbiudqumMJfXZQc-9" value="&lt;font style=&quot;font-size: 24px;&quot;&gt;0001&lt;/font&gt;" style="ellipse;whiteSpace=wrap;html=1;aspect=fixed;" vertex="1" parent="1">
          <mxGeometry x="250" y="300" width="80" height="80" as="geometry" />
        </mxCell>
        <mxCell id="mJAPhpbiudqumMJfXZQc-41" style="edgeStyle=orthogonalEdgeStyle;rounded=0;orthogonalLoop=1;jettySize=auto;html=1;exitX=0.5;exitY=1;exitDx=0;exitDy=0;entryX=0.5;entryY=0;entryDx=0;entryDy=0;" edge="1" parent="1" source="mJAPhpbiudqumMJfXZQc-10" target="mJAPhpbiudqumMJfXZQc-3">
          <mxGeometry relative="1" as="geometry" />
        </mxCell>
        <mxCell id="mJAPhpbiudqumMJfXZQc-10" value="&lt;font style=&quot;font-size: 24px;&quot;&gt;1001&lt;/font&gt;" style="ellipse;whiteSpace=wrap;html=1;aspect=fixed;" vertex="1" parent="1">
          <mxGeometry x="360" y="300" width="80" height="80" as="geometry" />
        </mxCell>
        <mxCell id="mJAPhpbiudqumMJfXZQc-42" style="edgeStyle=orthogonalEdgeStyle;rounded=0;orthogonalLoop=1;jettySize=auto;html=1;exitX=0.5;exitY=1;exitDx=0;exitDy=0;entryX=0.5;entryY=0;entryDx=0;entryDy=0;" edge="1" parent="1" source="mJAPhpbiudqumMJfXZQc-11" target="mJAPhpbiudqumMJfXZQc-10">
          <mxGeometry relative="1" as="geometry" />
        </mxCell>
        <mxCell id="mJAPhpbiudqumMJfXZQc-11" value="&lt;font style=&quot;font-size: 24px;&quot;&gt;0010&lt;/font&gt;" style="ellipse;whiteSpace=wrap;html=1;aspect=fixed;" vertex="1" parent="1">
          <mxGeometry x="360" y="190" width="80" height="80" as="geometry" />
        </mxCell>
        <mxCell id="mJAPhpbiudqumMJfXZQc-40" style="edgeStyle=orthogonalEdgeStyle;rounded=0;orthogonalLoop=1;jettySize=auto;html=1;exitX=0;exitY=0.5;exitDx=0;exitDy=0;entryX=1;entryY=0.5;entryDx=0;entryDy=0;" edge="1" parent="1" source="mJAPhpbiudqumMJfXZQc-12" target="mJAPhpbiudqumMJfXZQc-10">
          <mxGeometry relative="1" as="geometry" />
        </mxCell>
        <mxCell id="mJAPhpbiudqumMJfXZQc-12" value="&lt;font style=&quot;font-size: 24px;&quot;&gt;0011&lt;/font&gt;" style="ellipse;whiteSpace=wrap;html=1;aspect=fixed;" vertex="1" parent="1">
          <mxGeometry x="470" y="300" width="80" height="80" as="geometry" />
        </mxCell>
        <mxCell id="mJAPhpbiudqumMJfXZQc-34" style="edgeStyle=orthogonalEdgeStyle;rounded=0;orthogonalLoop=1;jettySize=auto;html=1;exitX=0.5;exitY=1;exitDx=0;exitDy=0;entryX=0.5;entryY=0;entryDx=0;entryDy=0;" edge="1" parent="1" source="mJAPhpbiudqumMJfXZQc-13" target="mJAPhpbiudqumMJfXZQc-5">
          <mxGeometry relative="1" as="geometry" />
        </mxCell>
        <mxCell id="mJAPhpbiudqumMJfXZQc-13" value="&lt;font style=&quot;font-size: 24px;&quot;&gt;1111&lt;/font&gt;" style="ellipse;whiteSpace=wrap;html=1;aspect=fixed;" vertex="1" parent="1">
          <mxGeometry x="580" y="300" width="80" height="80" as="geometry" />
        </mxCell>
        <mxCell id="mJAPhpbiudqumMJfXZQc-33" style="edgeStyle=orthogonalEdgeStyle;rounded=0;orthogonalLoop=1;jettySize=auto;html=1;exitX=0;exitY=0.5;exitDx=0;exitDy=0;entryX=0.5;entryY=1;entryDx=0;entryDy=0;" edge="1" parent="1" source="mJAPhpbiudqumMJfXZQc-14" target="mJAPhpbiudqumMJfXZQc-4">
          <mxGeometry relative="1" as="geometry" />
        </mxCell>
        <mxCell id="mJAPhpbiudqumMJfXZQc-14" value="&lt;font style=&quot;font-size: 24px;&quot;&gt;1101&lt;/font&gt;" style="ellipse;whiteSpace=wrap;html=1;aspect=fixed;" vertex="1" parent="1">
          <mxGeometry x="690" y="520" width="80" height="80" as="geometry" />
        </mxCell>
        <mxCell id="mJAPhpbiudqumMJfXZQc-37" style="edgeStyle=orthogonalEdgeStyle;rounded=0;orthogonalLoop=1;jettySize=auto;html=1;exitX=0;exitY=0.5;exitDx=0;exitDy=0;entryX=1;entryY=0.5;entryDx=0;entryDy=0;" edge="1" parent="1" source="mJAPhpbiudqumMJfXZQc-15" target="mJAPhpbiudqumMJfXZQc-14">
          <mxGeometry relative="1" as="geometry" />
        </mxCell>
        <mxCell id="mJAPhpbiudqumMJfXZQc-15" value="&lt;font style=&quot;font-size: 24px;&quot;&gt;1010&lt;/font&gt;" style="ellipse;whiteSpace=wrap;html=1;aspect=fixed;" vertex="1" parent="1">
          <mxGeometry x="800" y="520" width="80" height="80" as="geometry" />
        </mxCell>
        <mxCell id="mJAPhpbiudqumMJfXZQc-38" style="edgeStyle=orthogonalEdgeStyle;rounded=0;orthogonalLoop=1;jettySize=auto;html=1;exitX=0;exitY=0.5;exitDx=0;exitDy=0;entryX=1;entryY=0.5;entryDx=0;entryDy=0;" edge="1" parent="1" source="mJAPhpbiudqumMJfXZQc-16" target="mJAPhpbiudqumMJfXZQc-15">
          <mxGeometry relative="1" as="geometry" />
        </mxCell>
        <mxCell id="mJAPhpbiudqumMJfXZQc-16" value="&lt;font style=&quot;font-size: 24px;&quot;&gt;0101&lt;/font&gt;" style="ellipse;whiteSpace=wrap;html=1;aspect=fixed;" vertex="1" parent="1">
          <mxGeometry x="910" y="520" width="80" height="80" as="geometry" />
        </mxCell>
        <mxCell id="mJAPhpbiudqumMJfXZQc-17" value="" style="endArrow=classic;html=1;rounded=0;" edge="1" parent="1">
          <mxGeometry width="50" height="50" relative="1" as="geometry">
            <mxPoint x="220" y="449.5" as="sourcePoint" />
            <mxPoint x="250" y="449.5" as="targetPoint" />
          </mxGeometry>
        </mxCell>
        <mxCell id="mJAPhpbiudqumMJfXZQc-18" value="" style="endArrow=classic;html=1;rounded=0;" edge="1" parent="1">
          <mxGeometry width="50" height="50" relative="1" as="geometry">
            <mxPoint x="330" y="449.5" as="sourcePoint" />
            <mxPoint x="360" y="449.5" as="targetPoint" />
          </mxGeometry>
        </mxCell>
        <mxCell id="mJAPhpbiudqumMJfXZQc-19" value="" style="endArrow=classic;html=1;rounded=0;" edge="1" parent="1">
          <mxGeometry width="50" height="50" relative="1" as="geometry">
            <mxPoint x="440" y="449.5" as="sourcePoint" />
            <mxPoint x="470" y="449.5" as="targetPoint" />
          </mxGeometry>
        </mxCell>
      </root>
    </mxGraphModel>
  </diagram>
</mxfile>
